HIERARCHY
ROOT Hips
{
	OFFSET 0.000000 0.000000 0.000000
	CHANNELS 6 Xposition Yposition Zposition Zrotation Yrotation Xrotation 
	JOINT LowerBack
	{
		OFFSET 0.000000 0.000000 0.000000
		CHANNELS 3 Zrotation Yrotation Xrotation
		JOINT Spine
		{
			OFFSET 0.028270 2.035590 -0.193380
			CHANNELS 3 Zrotation Yrotation Xrotation
			JOINT Spine1
			{
				OFFSET 0.056720 2.048850 -0.042750
				CHANNELS 3 Zrotation Yrotation Xrotation
				JOINT Neck
				{
					OFFSET 0.000000 0.000000 0.000000
					CHANNELS 3 Zrotation Yrotation Xrotation
					JOINT Neck1
					{
						OFFSET -0.054170 1.746240 0.172020
						CHANNELS 3 Zrotation Yrotation Xrotation
						JOINT Head
						{
							OFFSET 0.104070 1.761360 -0.123970
							CHANNELS 3 Zrotation Yrotation Xrotation
							End Site
							{
								OFFSET 0.000000 0.000000 0.000000
							}
						}
					}
				}
				JOINT LeftShoulder
				{
					OFFSET 0.000000 0.000000 0.000000
					CHANNELS 3 Zrotation Yrotation Xrotation
					JOINT LeftArm
					{
						OFFSET 3.362410 1.200890 -0.311210
						CHANNELS 3 Zrotation Yrotation Xrotation
						JOINT LeftForeArm
						{
							OFFSET 4.983000 -0.000000 -0.000000
							CHANNELS 3 Zrotation Yrotation Xrotation
							JOINT LeftHand
							{
								OFFSET 3.483560 -0.000000 -0.000000
								CHANNELS 3 Zrotation Yrotation Xrotation
								JOINT LeftFingerBase
								{
									OFFSET 0.000000 0.000000 0.000000
									CHANNELS 3 Zrotation Yrotation Xrotation
									JOINT LeftHandIndex1
									{
										OFFSET 0.715260 -0.000000 -0.000000
										CHANNELS 3 Zrotation Yrotation Xrotation
										End Site
										{
											OFFSET 0.000000 0.000000 0.000000
										}
									}
								}
								JOINT LThumb
								{
									OFFSET 0.000000 0.000000 0.000000
									CHANNELS 3 Zrotation Yrotation Xrotation
									End Site
									{
										OFFSET 0.000000 0.000000 0.000000
									}
								}
							}
						}
					}
				}
				JOINT RightShoulder
				{
					OFFSET 0.000000 0.000000 0.000000
					CHANNELS 3 Zrotation Yrotation Xrotation
					JOINT RightArm
					{
						OFFSET -3.136600 1.374050 -0.404650
						CHANNELS 3 Zrotation Yrotation Xrotation
						JOINT RightForeArm
						{
							OFFSET -5.241900 -0.000000 -0.000000
							CHANNELS 3 Zrotation Yrotation Xrotation
							JOINT RightHand
							{
								OFFSET -3.444170 -0.000000 -0.000000
								CHANNELS 3 Zrotation Yrotation Xrotation
								JOINT RightFingerBase
								{
									OFFSET 0.000000 0.000000 0.000000
									CHANNELS 3 Zrotation Yrotation Xrotation
									JOINT RightHandIndex1
									{
										OFFSET -0.622530 -0.000000 -0.000000
										CHANNELS 3 Zrotation Yrotation Xrotation
										End Site
										{
											OFFSET 0.000000 0.000000 0.000000
										}
									}
								}
								JOINT RThumb
								{
									OFFSET 0.000000 0.000000 0.000000
									CHANNELS 3 Zrotation Yrotation Xrotation
									End Site
									{
										OFFSET 0.000000 0.000000 0.000000
									}
								}
							}
						}
					}
				}
			}
		}
	}
}
}
MOTION
Frames: 7
Frame Time: 0.008333
4.984867 20.060886 0.938451 37.767634 -85.026488 -8.980979 -1.536769 -2.527516 -7.343727 -0.646697 -2.626277 -3.495006 -4.593888 -2.761646 3.803641 8.657252 -14.748021 -10.126801 -1.370821 -0.066480 -0.653904 0.000000 0.000000 0.000000 5.744805 14.372872 1.442633 -46.329477 3.109382 -29.512155 -0.570229 -67.881090 -0.159981 26.732105 4.403626 0.990911 -0.391663 0.295703 0.000000 0.000000 0.000000 0.000000 0.000000 0.000000 0.000000 6.634417 -12.606229 0.901358 48.022918 6.941621 -42.461230 0.331233 52.002136 -0.098876 -24.517185 10.532636 -2.394927 0.244488 -0.354992 0.000000 0.000000 0.000000 0.000000 0.000000 0.000000 0.000000 
4.876942 20.220699 0.926143 38.660601 -85.051590 -9.459222 -1.619333 -2.552450 -7.565633 -0.652367 -2.652166 -3.526425 -4.535292 -2.794079 3.865586 8.653975 -14.765509 -10.160127 -1.316785 -0.061725 -0.662139 0.000000 0.000000 0.000000 5.992029 14.793735 1.449083 -44.833774 3.118356 -31.097341 -0.498986 -69.263349 -0.171380 27.185851 4.466021 1.019721 -0.407439 0.312625 0.000000 0.000000 0.000000 0.000000 0.000000 0.000000 0.000000 6.423422 -12.629813 0.860783 46.538870 6.714156 -43.721720 0.235728 53.615091 -0.106065 -24.944508 10.365270 -2.403232 0.250474 -0.367357 0.000000 0.000000 0.000000 0.000000 0.000000 0.000000 0.000000 
4.774982 20.368971 0.914995 39.415648 -85.050046 -9.797259 -1.676351 -2.573194 -7.691436 -0.653352 -2.673697 -3.543902 -4.472434 -2.821954 3.913430 8.630020 -14.748741 -10.202462 -1.264935 -0.056841 -0.674654 0.000000 0.000000 0.000000 6.221086 15.205515 1.461453 -43.403156 3.050473 -32.794082 -0.439582 -70.431392 -0.183142 27.708071 4.511561 1.047514 -0.422742 0.329294 0.000000 0.000000 0.000000 0.000000 0.000000 0.000000 0.000000 6.198150 -12.629315 0.826479 45.083534 6.413566 -45.042762 0.144816 55.167302 -0.113595 -25.396796 10.144178 -2.400444 0.256837 -0.379213 -0.000000 0.000000 0.000000 0.000000 0.000000 0.000000 0.000000 
4.678575 20.506624 0.905280 39.967426 -85.036334 -9.940855 -1.697879 -2.586643 -7.722735 -0.647536 -2.688341 -3.547355 -4.405638 -2.842510 3.947520 8.582300 -14.709381 -10.253276 -1.214768 -0.051808 -0.691188 0.000000 0.000000 0.000000 6.425479 15.605502 1.477648 -42.048105 2.923348 -34.581394 -0.391380 -71.395102 -0.195074 28.288143 4.539733 1.073491 -0.437481 0.345404 0.000000 0.000000 0.000000 0.000000 0.000000 0.000000 0.000000 5.955629 -12.613386 0.798963 43.670509 6.053189 -46.408824 0.061451 56.637636 -0.121273 -25.848009 9.878196 -2.385263 0.263539 -0.390511 -0.000000 0.000000 0.000000 0.000000 0.000000 0.000000 0.000000 
4.587019 20.633941 0.897084 40.291412 -85.023286 -9.868869 -1.678623 -2.590626 -7.669472 -0.633683 -2.694326 -3.538103 -4.335439 -2.853828 3.969001 8.510027 -14.660150 -10.312644 -1.165426 -0.046570 -0.711626 0.000000 0.000000 0.000000 6.601075 15.990998 1.496137 -40.774324 2.756523 -36.434866 -0.353157 -72.167723 -0.206972 28.914715 4.548176 1.096459 -0.451589 0.360706 0.000000 0.000000 0.000000 0.000000 0.000000 0.000000 0.000000 5.693712 -12.591782 0.778830 42.312417 5.652225 -47.803125 -0.012312 58.007410 -0.128889 -26.273059 9.584889 -2.358987 0.270478 -0.401285 -0.000000 0.000000 0.000000 0.000000 0.000000 0.000000 0.000000 
4.499482 20.751254 0.890278 40.400183 -85.020418 -9.593642 -1.618400 -2.584373 -7.547752 -0.611596 -2.691039 -3.518534 -4.262695 -2.855232 3.979776 8.414859 -14.614199 -10.381008 -1.116018 -0.041064 -0.735911 0.000000 0.000000 0.000000 6.746190 16.359487 1.515841 -39.582999 2.568600 -38.328256 -0.323370 -72.764377 -0.218607 29.571849 4.533396 1.114719 -0.464983 0.375026 0.000000 0.000000 0.000000 0.000000 0.000000 0.000000 0.000000 5.412718 -12.575159 0.766434 41.019965 5.232993 -49.207841 -0.075385 59.261635 -0.136236 -26.650092 9.285788 -2.324716 0.277506 -0.411608 -0.000000 0.000000 0.000000 0.000000 0.000000 0.000000 0.000000 
4.414893 20.858916 0.884666 40.330532 -85.033830 -9.145379 -1.521684 -2.568189 -7.378989 -0.581984 -2.678754 -3.492044 -4.188207 -2.847039 3.982276 8.300027 -14.582536 -10.458459 -1.065475 -0.035218 -0.763865 0.000000 0.000000 0.000000 6.863007 16.708692 1.536224 -38.472398 2.377220 -40.232439 -0.300366 -73.200198 -0.229771 30.243263 4.491189 1.125875 -0.477619 0.388283 0.000000 0.000000 0.000000 0.000000 0.000000 0.000000 0.000000 5.113293 -12.572631 0.761927 39.802368 4.818441 -50.606428 -0.127651 60.388465 -0.143130 -26.961678 9.004181 -2.287048 0.284440 -0.421606 -0.000000 0.000000 0.000000 0.000000 0.000000 0.000000 0.000000 
